# xmcd
#
# Track frame offsets: 
#        150
#        34867
#        54134
#        67510
#        98589
#        116620
#        130235
#        149734
#        170667
#        197579
#        219804
#
# Disc length: 3229 seconds
#
# Revision: 0
# Processed by: cddbd v1.5.2PL0 Copyright (c) Steve Scherf et al.
# Submitted via: ExactAudioCopyFreeDBPlugin 1.0
#
DISCID=920c9b0b
DTITLE=Monofocus - Spaghetto Blaster
DYEAR=2011
DGENRE=Blues
TTITLE0=Solfège
TTITLE1=Le mur de la mort
TTITLE2=Kinétographe
TTITLE3=Spaghetti
TTITLE4=Bumper car blues
TTITLE5=Fenomeno
TTITLE6=Electrodiddley
TTITLE7=Il treno
TTITLE8=Djemaa el fna
TTITLE9=L'homme de pluie
TTITLE10=Les djinns
EXTD=
EXTT0=
EXTT1=
EXTT2=
EXTT3=
EXTT4=
EXTT5=
EXTT6=
EXTT7=
EXTT8=
EXTT9=
EXTT10=
PLAYORDER=
